<?xml version="1.0" encoding="utf-8"?>
<!-- Generator: Adobe Illustrator 24.3.0, SVG Export Plug-In . SVG Version: 6.00 Build 0)  -->
<svg version="1.1" id="Capa_1" xmlns="http://www.w3.org/2000/svg" xmlns:xlink="http://www.w3.org/1999/xlink" x="0px" y="0px"
	 viewBox="0 0 214.4 109.7" style="enable-background:new 0 0 214.4 109.7;" xml:space="preserve">
<style type="text/css">
	.st0{fill:#FAE161;}
	.st1{fill:#704905;}
</style>
<g id="Capa_3">
	<polygon class="st0" points="-347.4,-167 -323,-137.3 -284.8,-140.5 -305.5,-108.2 -290.5,-72.7 -327.7,-82.4 -356.8,-57.3 
		-359.1,-95.7 -392,-115.5 -356.2,-129.6 	"/>
	<path class="st1" d="M-304-127.1c0.8,0,1.5,0.3,2,0.8c0.5,0.6,0.8,1.3,0.8,2.1v30.4c0,1.7-1.3,3.1-3,3.2c0,0-0.1,0-0.1,0
		c-0.5,0-0.9-0.1-1.4-0.2c-0.4-0.1-0.8-0.3-1.1-0.7l-20.5-26l1.4-0.8v24.8c0,0.8-0.3,1.5-0.8,2.1c-0.6,0.6-1.3,0.9-2.1,0.8
		c-0.8,0-1.5-0.3-2-0.8c-0.5-0.6-0.8-1.3-0.8-2.1v-30.4c0-0.8,0.3-1.7,0.9-2.3c0.6-0.6,1.4-0.9,2.3-0.9c0.5,0,1,0.1,1.5,0.3
		c0.5,0.2,0.9,0.5,1.1,0.9l19.8,25.3l-0.9,0.6v-24.2c0-0.8,0.3-1.5,0.8-2.1C-305.6-126.8-304.8-127.1-304-127.1z"/>
	<path class="st1" d="M-273.2-118.5c0.8,0,1.7,0.3,2.2,0.9c0.6,0.6,0.9,1.4,0.9,2.3v13.2c0.2,3.2-0.9,6.4-3.1,8.8
		c-2.1,2.1-5,3.2-8.9,3.2s-6.8-1.1-8.8-3.2c-2.1-2.4-3.2-5.6-3-8.8v-13.2c0-0.8,0.3-1.7,0.9-2.3c1.2-1.2,3.2-1.2,4.5,0
		c0.6,0.6,0.9,1.4,0.9,2.3v13.2c-0.1,1.7,0.4,3.4,1.4,4.7c1.1,1.1,2.7,1.7,4.2,1.5c1.6,0.1,3.1-0.4,4.3-1.5c1-1.3,1.5-3,1.4-4.7
		v-13.2c0-0.8,0.3-1.7,0.9-2.3C-274.9-118.2-274.1-118.5-273.2-118.5z"/>
	<path class="st1" d="M-250.5-90.1c-2.7,0.1-5.3-0.6-7.7-1.8c-2.1-1.2-3.8-2.9-5-5c-1.2-2.2-1.8-4.7-1.8-7.2c-0.1-2.8,0.6-5.5,1.9-8
		c1.2-2.1,2.9-3.9,5-5.1c2-1.2,4.2-1.8,6.5-1.8c1.7,0,3.4,0.4,5,1.1c1.6,0.7,3,1.7,4.2,3c1.2,1.3,2.2,2.8,2.9,4.4
		c0.7,1.7,1.1,3.5,1.1,5.3c0,0.8-0.4,1.5-1,2c-0.6,0.5-1.4,0.8-2.2,0.8h-19.9l-1.6-5.2h19.1l-1.1,1v-1.4c-0.1-1-0.4-1.9-1.1-2.7
		c-0.6-0.8-1.5-1.5-2.4-1.9c-0.9-0.5-2-0.7-3.1-0.7c-1,0-2,0.1-2.9,0.4c-0.9,0.3-1.7,0.8-2.4,1.4c-0.7,0.8-1.2,1.7-1.6,2.7
		c-0.4,1.4-0.6,2.8-0.6,4.2c-0.1,1.7,0.4,3.3,1.2,4.8c1.4,2.5,4.1,4,7,4c1,0,2.1-0.1,3.1-0.3c0.6-0.2,1.3-0.4,1.9-0.8
		c0.5-0.3,0.9-0.6,1.3-0.8c0.5-0.3,1.2-0.5,1.8-0.5c0.7,0,1.4,0.3,1.9,0.8c0.5,0.5,0.8,1.1,0.8,1.8c-0.1,1-0.6,2-1.5,2.5
		c-1.1,0.9-2.4,1.6-3.8,2C-247-90.4-248.7-90.1-250.5-90.1z"/>
	<path class="st1" d="M-232.1-118.5c0.6,0,1.3,0.2,1.8,0.5c0.6,0.3,1,0.9,1.2,1.5l7.7,17.5l-1.1,0.5l7.8-18c0.3-1.2,1.5-2.1,2.8-2
		c0.8,0,1.5,0.3,2.1,0.8c0.5,0.5,0.8,1.2,0.8,2c0,0.3,0,0.5-0.1,0.8c-0.1,0.3-0.2,0.5-0.3,0.8l-9.8,21.5c-0.4,1.1-1.5,1.9-2.7,2
		c-0.7,0.1-1.3,0-1.9-0.4c-0.6-0.4-1.1-0.9-1.4-1.6l-9.7-21.5c-0.1-0.2-0.1-0.4-0.2-0.7c-0.1-0.3-0.1-0.7-0.1-1
		c0-0.7,0.3-1.4,0.8-1.8C-233.8-118.2-233-118.5-232.1-118.5z"/>
	<path class="st1" d="M-177.5-104.5c0.1,2.6-0.6,5.2-1.9,7.5c-1.2,2.1-3,3.9-5.1,5.1c-4.5,2.4-9.9,2.4-14.3,0
		c-2.1-1.2-3.9-3-5.1-5.1c-1.3-2.3-2-4.9-1.9-7.5c-0.1-2.6,0.6-5.2,1.9-7.5c1.2-2.1,3-3.9,5.1-5.1c4.5-2.5,9.9-2.5,14.3,0
		c2.1,1.2,3.9,3,5.1,5.1C-178.1-109.7-177.5-107.1-177.5-104.5z M-183.8-104.5c0-1.6-0.3-3.2-1.1-4.6c-0.7-1.2-1.7-2.3-2.9-3
		c-2.5-1.5-5.5-1.5-8,0c-1.2,0.7-2.2,1.8-2.9,3c-0.7,1.4-1.1,3-1.1,4.6c0,1.6,0.3,3.1,1.1,4.5c0.7,1.2,1.7,2.3,2.9,3
		c2.5,1.5,5.5,1.5,8,0c1.2-0.7,2.2-1.8,2.9-3C-184.1-101.4-183.7-102.9-183.8-104.5z"/>
</g>
</svg>
