<svg xmlns="http://www.w3.org/2000/svg" viewBox="0 0 214.43 109.68"><defs><style>.cls-1{fill:#fae161;}.cls-2{fill:#704905;}</style></defs><g id="Capa_3" data-name="Capa 3"><polygon class="cls-1" points="44.52 0 68.91 29.7 107.2 26.45 86.49 58.82 101.42 94.23 64.23 84.54 35.16 109.68 32.89 71.32 0 51.44 35.78 37.42 44.52 0"/><path class="cls-2" d="M87.9,39.89a2.65,2.65,0,0,1,2,.84,2.92,2.92,0,0,1,.78,2.08v30.4a3.11,3.11,0,0,1-3.18,3.18,4.27,4.27,0,0,1-1.38-.24,2.35,2.35,0,0,1-1.07-.65l-20.48-26L66,48.65V73.47a2.86,2.86,0,0,1-.81,2.08,2.79,2.79,0,0,1-2.11.84,2.65,2.65,0,0,1-2-.84,2.92,2.92,0,0,1-.78-2.08V43.07a3,3,0,0,1,.91-2.26,3.08,3.08,0,0,1,2.27-.92,4.43,4.43,0,0,1,1.51.29,2.18,2.18,0,0,1,1.14.86L85.92,66.38,85,67V42.81a2.92,2.92,0,0,1,.78-2.08A2.73,2.73,0,0,1,87.9,39.89Z"/><path class="cls-2" d="M118.71,48.5a3,3,0,0,1,2.24.91,3.13,3.13,0,0,1,.89,2.27V64.92a12.21,12.21,0,0,1-3.08,8.76q-3.08,3.22-8.86,3.23t-8.84-3.23a12.28,12.28,0,0,1-3-8.76V51.68a3.13,3.13,0,0,1,.89-2.27,3.21,3.21,0,0,1,4.48,0,3.13,3.13,0,0,1,.89,2.27V64.92a6.81,6.81,0,0,0,1.41,4.72,5.46,5.46,0,0,0,4.22,1.54,5.51,5.51,0,0,0,4.27-1.54,6.81,6.81,0,0,0,1.41-4.72V51.68a3.13,3.13,0,0,1,.89-2.27A3,3,0,0,1,118.71,48.5Z"/><path class="cls-2" d="M141.49,76.91a15.38,15.38,0,0,1-7.69-1.85,12.73,12.73,0,0,1-5-5,14.65,14.65,0,0,1-1.75-7.2,15.92,15.92,0,0,1,1.9-8,13.43,13.43,0,0,1,5-5.08A12.89,12.89,0,0,1,140.45,48a11.86,11.86,0,0,1,5,1.09,13.81,13.81,0,0,1,4.2,3,14.73,14.73,0,0,1,2.89,4.4,13.45,13.45,0,0,1,1.07,5.32,2.64,2.64,0,0,1-1,2,3.3,3.3,0,0,1-2.19.79H130.55L129,59.39h19.13l-1.14,1V59a4.77,4.77,0,0,0-1.07-2.71,6.94,6.94,0,0,0-2.4-1.91,6.82,6.82,0,0,0-3.05-.7,9.81,9.81,0,0,0-2.92.42,5.74,5.74,0,0,0-2.35,1.4,6.89,6.89,0,0,0-1.56,2.66,13.3,13.3,0,0,0-.57,4.23,9.17,9.17,0,0,0,1.17,4.77,8,8,0,0,0,7,4,12,12,0,0,0,3.08-.32,7.23,7.23,0,0,0,1.85-.75c.47-.3.89-.55,1.28-.76a4,4,0,0,1,1.77-.47,2.53,2.53,0,0,1,1.9.78,2.57,2.57,0,0,1,.76,1.83A3.25,3.25,0,0,1,150.36,74a12.05,12.05,0,0,1-3.81,2A15.24,15.24,0,0,1,141.49,76.91Z"/><path class="cls-2" d="M159.84,48.5a3.54,3.54,0,0,1,1.83.49,3.09,3.09,0,0,1,1.25,1.49L170.58,68l-1.14.52,7.82-18a2.73,2.73,0,0,1,2.76-2,2.85,2.85,0,0,1,2.11.81,2.71,2.71,0,0,1,.81,2,2.56,2.56,0,0,1-.13.79c-.09.27-.18.53-.29.78l-9.75,21.48a3,3,0,0,1-2.66,2,2.85,2.85,0,0,1-1.9-.37,3.2,3.2,0,0,1-1.38-1.61l-9.7-21.48c-.07-.18-.15-.4-.23-.68a3.26,3.26,0,0,1-.13-1,2.77,2.77,0,0,1,.83-1.85A2.9,2.9,0,0,1,159.84,48.5Z"/><path class="cls-2" d="M214.43,62.47a14.63,14.63,0,0,1-1.9,7.53,13.71,13.71,0,0,1-5.11,5.09,15,15,0,0,1-14.34,0A13.71,13.71,0,0,1,188,70a14.63,14.63,0,0,1-1.9-7.53,14.63,14.63,0,0,1,1.9-7.53,13.77,13.77,0,0,1,5.11-5.11,14.82,14.82,0,0,1,14.34,0,13.77,13.77,0,0,1,5.11,5.11A14.63,14.63,0,0,1,214.43,62.47Zm-6.26,0a9.55,9.55,0,0,0-1.06-4.62,7.94,7.94,0,0,0-2.87-3,7.79,7.79,0,0,0-8,0,7.94,7.94,0,0,0-2.87,3,9.55,9.55,0,0,0-1.06,4.62A9.37,9.37,0,0,0,193.39,67a8,8,0,0,0,2.87,3,7.79,7.79,0,0,0,8,0,8,8,0,0,0,2.87-3A9.37,9.37,0,0,0,208.17,62.47Z"/></g></svg>