<svg xmlns="http://www.w3.org/2000/svg" viewBox="0 0 284.45 136.44"><defs><style>.cls-1{fill:#f4a568;}.cls-2{fill:#f5f5f5;}</style></defs><g id="Capa_3" data-name="Capa 3"><rect class="cls-1" width="284.45" height="136.44" rx="10.93"/><path class="cls-2" d="M97.22,69.08a22.34,22.34,0,0,1-1.44,8.08,20.63,20.63,0,0,1-4.06,6.6,19,19,0,0,1-6.23,4.47,19.17,19.17,0,0,1-7.87,1.61,18.67,18.67,0,0,1-14-6.08,20.48,20.48,0,0,1-4.07-6.6,23.36,23.36,0,0,1,0-16.15,20.48,20.48,0,0,1,4.07-6.6,19.18,19.18,0,0,1,28.14,0A20.63,20.63,0,0,1,95.78,61,22.32,22.32,0,0,1,97.22,69.08Zm-7.49,0a15.51,15.51,0,0,0-1.56-7,12.71,12.71,0,0,0-4.27-5,11.6,11.6,0,0,0-12.57,0,12.61,12.61,0,0,0-4.24,5,17,17,0,0,0,0,14,12.56,12.56,0,0,0,4.24,5,11.65,11.65,0,0,0,12.57,0,12.71,12.71,0,0,0,4.27-5A15.56,15.56,0,0,0,89.73,69.08Z"/><path class="cls-2" d="M126.17,58.42a3.32,3.32,0,0,1,2.48,1,3.49,3.49,0,0,1,1,2.51V76.58q0,6.11-3.41,9.69t-9.8,3.57q-6.39,0-9.77-3.57t-3.37-9.69V61.93a3.45,3.45,0,0,1,1-2.51,3.56,3.56,0,0,1,4.95,0,3.45,3.45,0,0,1,1,2.51V76.58c0,2.35.51,4.08,1.55,5.22a6,6,0,0,0,4.67,1.7,6.11,6.11,0,0,0,4.73-1.7c1-1.14,1.56-2.87,1.56-5.22V61.93a3.45,3.45,0,0,1,1-2.51A3.31,3.31,0,0,1,126.17,58.42Z"/><path class="cls-2" d="M137.47,59h13.66a3.14,3.14,0,0,1,2.31.92,3.17,3.17,0,0,1,.92,2.31,3,3,0,0,1-.92,2.22,3.15,3.15,0,0,1-2.31.89H137.47a3.14,3.14,0,0,1-3.23-3.22,3,3,0,0,1,.92-2.22A3.19,3.19,0,0,1,137.47,59Zm6.17-7.21a3.23,3.23,0,0,1,2.45,1A3.55,3.55,0,0,1,147,55.3V81a2.54,2.54,0,0,0,.32,1.33,1.84,1.84,0,0,0,.86.75,3.1,3.1,0,0,0,1.18.23,3.07,3.07,0,0,0,1.27-.26,3.13,3.13,0,0,1,1.33-.26,1.93,1.93,0,0,1,1.47.75,3.12,3.12,0,0,1-1.1,4.73,7.3,7.3,0,0,1-3.77,1,18.94,18.94,0,0,1-2.68-.2,7.13,7.13,0,0,1-2.77-1A5.88,5.88,0,0,1,141,85.69a9.46,9.46,0,0,1-.87-4.44V55.3a3.45,3.45,0,0,1,3.52-3.52Z"/><path class="cls-2" d="M168.2,85.75a3.45,3.45,0,0,1-3.52,3.51,3.22,3.22,0,0,1-2.42-1,3.45,3.45,0,0,1-1-2.5V50.11a3.45,3.45,0,0,1,3.52-3.52,3.22,3.22,0,0,1,2.45,1,3.55,3.55,0,0,1,.95,2.51Z"/><path class="cls-2" d="M189.94,89.84a16.85,16.85,0,0,1-8.5-2,14.1,14.1,0,0,1-5.54-5.56,16.23,16.23,0,0,1-1.93-8,17.51,17.51,0,0,1,2.1-8.85,15,15,0,0,1,5.51-5.62,14.19,14.19,0,0,1,7.21-2,13.06,13.06,0,0,1,5.56,1.21A15.07,15.07,0,0,1,199,62.37a16,16,0,0,1,3.2,4.87,14.74,14.74,0,0,1,1.18,5.88,3,3,0,0,1-1.09,2.25,3.7,3.7,0,0,1-2.42.86h-22l-1.73-5.76h21.16L196,71.62V70.06a5.19,5.19,0,0,0-1.18-3A7.63,7.63,0,0,0,192.16,65a7.54,7.54,0,0,0-3.37-.78,11.16,11.16,0,0,0-3.23.46A6.23,6.23,0,0,0,183,66.2a7.52,7.52,0,0,0-1.73,2.94,14.68,14.68,0,0,0-.63,4.67,10,10,0,0,0,1.3,5.28,8.75,8.75,0,0,0,3.34,3.28,8.9,8.9,0,0,0,4.35,1.13,13.32,13.32,0,0,0,3.4-.35,7.84,7.84,0,0,0,2-.83c.52-.33,1-.61,1.42-.84a4.32,4.32,0,0,1,1.95-.52,2.92,2.92,0,0,1,3,2.88,3.59,3.59,0,0,1-1.62,2.83,13.38,13.38,0,0,1-4.21,2.22A16.83,16.83,0,0,1,189.94,89.84Z"/><path class="cls-2" d="M209.49,59h13.66a3.15,3.15,0,0,1,3.23,3.23,3,3,0,0,1-.92,2.22,3.18,3.18,0,0,1-2.31.89H209.49a3.14,3.14,0,0,1-3.23-3.22,2.93,2.93,0,0,1,.92-2.22A3.16,3.16,0,0,1,209.49,59Zm6.17-7.21a3.25,3.25,0,0,1,2.45,1,3.55,3.55,0,0,1,.95,2.51V81a2.54,2.54,0,0,0,.31,1.33,1.86,1.86,0,0,0,.87.75,3.06,3.06,0,0,0,1.18.23,3.13,3.13,0,0,0,1.27-.26,3.1,3.1,0,0,1,1.33-.26,2,2,0,0,1,1.47.75,3,3,0,0,1,.66,2.07,3.07,3.07,0,0,1-1.76,2.66,7.31,7.31,0,0,1-3.78,1,19,19,0,0,1-2.68-.2,7.09,7.09,0,0,1-2.76-1A6,6,0,0,1,213,85.69a9.6,9.6,0,0,1-.86-4.44V55.3a3.45,3.45,0,0,1,3.52-3.52Z"/></g></svg>