<svg xmlns="http://www.w3.org/2000/svg" width="34.901" height="26.463" viewBox="0 0 34.901 26.463">
  <g id="icon-despacho-domicilio" transform="translate(-1118.154 -706.531)">
    <g id="Grupo_23744" data-name="Grupo 23744">
      <path id="Trazado_66851" data-name="Trazado 66851" d="M1153.055,720.048v9a.562.562,0,0,1-.564.564H1150.2a3.939,3.939,0,0,1-7.8,0h-13.594a3.939,3.939,0,0,1-7.8,0h-2.292a.561.561,0,0,1-.564-.564V708.5a1.974,1.974,0,0,1,1.971-1.972H1138.7a1.984,1.984,0,0,1,1.971,1.972v3.1h6.752a.563.563,0,0,1,.474.258l5.066,7.881A.531.531,0,0,1,1153.055,720.048Zm-1.129,8.438v-3.372h-1.121a1.69,1.69,0,1,1,0-3.379h1.121v-1.129h-9a.56.56,0,0,1-.564-.558v-6.194a.561.561,0,0,1,.564-.564h4.557l-.362-.565h-6.446v15.761h1.728a3.939,3.939,0,0,1,7.8,0Zm0-4.5v-1.129h-1.121a.564.564,0,1,0,0,1.129Zm-.466-4.5-3.254-5.066h-4.718v5.066Zm-2.349,9.567a2.811,2.811,0,1,0-2.815,2.815A2.811,2.811,0,0,0,1149.111,729.051Zm-9.566-.565v-5.63h-20.27v5.63h1.735a3.939,3.939,0,0,1,7.8,0Zm0-6.751V708.5a.842.842,0,0,0-.843-.843h-18.577a.848.848,0,0,0-.85.843v13.232Zm-11.825,7.316a2.815,2.815,0,1,0-2.815,2.815A2.816,2.816,0,0,0,1127.72,729.051Z" fill="#39311d"/>
      <path id="Trazado_66852" data-name="Trazado 66852" d="M1151.926,725.114v3.372H1150.2a3.939,3.939,0,0,0-7.8,0h-1.728V712.725h6.446l.362.565h-4.557a.561.561,0,0,0-.564.564v6.194a.56.56,0,0,0,.564.558h9v1.129h-1.121a1.69,1.69,0,1,0,0,3.379Zm-6.751-2.815a.562.562,0,0,0-.565-.564h-1.686a.561.561,0,1,0,0,1.121h1.686A.56.56,0,0,0,1145.175,722.3Z" fill="#f3eac2"/>
      <path id="Trazado_66853" data-name="Trazado 66853" d="M1151.926,722.856v1.129h-1.121a.564.564,0,1,1,0-1.129Z" fill="#f5b461"/>
      <path id="Trazado_66854" data-name="Trazado 66854" d="M1148.206,714.418l3.254,5.066h-7.971v-5.066Z" fill="#fff"/>
      <path id="Trazado_66855" data-name="Trazado 66855" d="M1146.3,726.236a2.815,2.815,0,1,1-2.808,2.815A2.811,2.811,0,0,1,1146.3,726.236Zm1.694,2.815a1.69,1.69,0,1,0-1.694,1.693A1.689,1.689,0,0,0,1147.99,729.051Z" fill="#f5b461"/>
      <path id="Trazado_66856" data-name="Trazado 66856" d="M1146.3,727.365a1.69,1.69,0,1,1-1.686,1.686A1.689,1.689,0,0,1,1146.3,727.365Zm.565,1.686a.561.561,0,1,0-1.122,0,.561.561,0,1,0,1.122,0Z" fill="#39311d"/>
      <path id="Trazado_66857" data-name="Trazado 66857" d="M1146.3,728.486a.564.564,0,1,1,0,1.129.565.565,0,0,1,0-1.129Z" fill="#fff"/>
      <path id="Trazado_66858" data-name="Trazado 66858" d="M1144.61,721.735a.561.561,0,1,1,0,1.121h-1.686a.561.561,0,1,1,0-1.121Z" fill="#f5b461"/>
      <path id="Trazado_66859" data-name="Trazado 66859" d="M1139.545,722.856v5.63h-10.738a3.939,3.939,0,0,0-7.8,0h-1.735v-5.63Z" fill="#f3eac2"/>
      <path id="Trazado_66860" data-name="Trazado 66860" d="M1139.545,708.5v13.232h-20.27V708.5a.848.848,0,0,1,.85-.843H1138.7A.842.842,0,0,1,1139.545,708.5Z" fill="#ec524b"/>
      <path id="Trazado_66861" data-name="Trazado 66861" d="M1124.905,726.236a2.815,2.815,0,1,1-2.815,2.815A2.816,2.816,0,0,1,1124.905,726.236Zm1.693,2.815a1.69,1.69,0,1,0-1.693,1.693A1.688,1.688,0,0,0,1126.6,729.051Z" fill="#f5b461"/>
      <path id="Trazado_66862" data-name="Trazado 66862" d="M1124.905,727.365a1.69,1.69,0,1,1-1.686,1.686A1.688,1.688,0,0,1,1124.905,727.365Zm.565,1.686a.561.561,0,1,0-1.122,0,.561.561,0,1,0,1.122,0Z" fill="#39311d"/>
      <path id="Trazado_66863" data-name="Trazado 66863" d="M1124.905,728.486a.564.564,0,1,1,0,1.129.565.565,0,0,1,0-1.129Z" fill="#fff"/>
    </g>
  </g>
</svg>