<svg xmlns="http://www.w3.org/2000/svg" width="14.524" height="14.524" viewBox="0 0 14.524 14.524">
  <g id="Grupo_23730" data-name="Grupo 23730" transform="translate(-1237.209 -489.767)">
    <path id="Trazado_66841" data-name="Trazado 66841" d="M1237.209,489.767v14.524h14.524Zm.851,2.054.84.84-.627.627.6.6.626-.627,1.266,1.266-.626.626.6.6.627-.626,1.265,1.265-.626.627.6.6.626-.626,1.266,1.265-.627.627.6.6.626-.627,1.266,1.266-.626.626.6.6.627-.626,1.265,1.265-.626.627.6.6.626-.626.84.84H1238.06Z" fill="#fff"/>
    <path id="Trazado_66842" data-name="Trazado 66842" d="M1239.989,501.511h5.055l-5.055-5.055Zm.851-3,2.149,2.15h-2.149Z" fill="#fff"/>
  </g>
</svg>