<svg xmlns="http://www.w3.org/2000/svg" width="10" height="9.091" viewBox="0 0 10 9.091">
  <path id="Trazado_55573" data-name="Trazado 55573" d="M2030.97,364.534a.456.456,0,0,1-.2-.048l-1.818-.909a.455.455,0,0,1-.251-.407v-2.806l-3.529-4.173a.455.455,0,0,1,.347-.748h9.091a.455.455,0,0,1,.347.748l-3.529,4.173v3.715a.454.454,0,0,1-.454.455Zm-1.364-1.645.909.455V360.2a.451.451,0,0,1,.108-.293l3-3.552h-7.131l3,3.552a.456.456,0,0,1,.107.293Z" transform="translate(-2025.061 -355.443)" fill="#441e13"/>
</svg>