<svg xmlns="http://www.w3.org/2000/svg" width="28.823" height="28.824" viewBox="0 0 28.823 28.824">
 <g id="Icono-wishlist" transform="translate(-900.612 -625.559)">
    <path id="Trazado_66843" data-name="Trazado 66843" d="M923.716,633.328v14.484a1.11,1.11,0,0,1-1.111,1.11H902.524a.991.991,0,0,1-.989-.988V633.328Z" fill="#ffb74d"/>
    <path id="Trazado_66844" data-name="Trazado 66844" d="M923.416,632.99H901.827l3.232-5.822a1.164,1.164,0,0,1,1.015-.6h13.093a1.168,1.168,0,0,1,1.015.6Z" fill="#ffa726"/>
    <path id="Trazado_66845" data-name="Trazado 66845" d="M921.629,653.662a.807.807,0,0,1-.484-.16c-.67-.5-6.542-4.973-6.542-8.769a148.017,148.017,0,0,0,10-4.04,4.051,4.051,0,0,1,4.053,4.04c0,3.8-5.872,8.272-6.541,8.769A.81.81,0,0,1,921.629,653.662Z" fill="#fff"/>
    <path id="Trazado_66846" data-name="Trazado 66846" d="M921.629,654.383a.9.9,0,0,1-.537-.178c-.745-.554-7.27-5.527-7.27-9.745a163.207,163.207,0,0,0,11.109-4.489,4.5,4.5,0,0,1,4.5,4.489c0,4.218-6.525,9.191-7.269,9.745A.9.9,0,0,1,921.629,654.383Zm-3.3-12.611a2.7,2.7,0,0,0-2.7,2.688c0,2.568,3.934,6.233,6.005,7.884,2.07-1.651,6-5.316,6-7.884a2.7,2.7,0,0,0-5.179-1.076.937.937,0,0,1-1.651,0A2.7,2.7,0,0,0,918.326,641.772Z"/>
    <path id="Trazado_66847" data-name="Trazado 66847" d="M924.518,632.628l-3.325-5.987a2.1,2.1,0,0,0-1.838-1.082H905.887a2.1,2.1,0,0,0-1.837,1.081l-3.326,5.988a.9.9,0,0,0-.089.637v14.384a1.893,1.893,0,0,0,1.892,1.893h10.362a.873.873,0,1,0,0-1.745H902.469a.089.089,0,0,1-.089-.09V633.948h10.065q.037.008.078.012a.913.913,0,0,0,.282-.012h10.011v3.9a.9.9,0,0,0,1,.895.916.916,0,0,0,.8-.919v-4.6A.9.9,0,0,0,924.518,632.628Zm-4.9-5.112,2.572,4.63h-8.662v-4.785h5.828A.3.3,0,0,1,919.617,627.516Zm-13.993,0a.3.3,0,0,1,.263-.154h5.838v4.785h-8.672Z"/>
  </g>
</svg>