<svg xmlns="http://www.w3.org/2000/svg" width="28.36" height="26.753" viewBox="0 0 28.36 26.753">
  <g id="A_Color" data-name="A Color" transform="translate(-899.228 -752.387)">
    <path id="Trazado_66848" data-name="Trazado 66848" d="M927.5,711.411a1.208,1.208,0,0,1,.091.456,5.523,5.523,0,0,1-2.393,4.546c0,.057.034.114.034.183v12.271c0,2.358-1.6,4.273-3.543,4.273H905.131c-1.949,0-3.544-1.915-3.544-4.273V716.6c0-.069.034-.126.034-.183a5.523,5.523,0,0,1-2.393-4.546,1.089,1.089,0,0,1,.149-.57L901.735,707a1.184,1.184,0,0,1,1.037-.615H924.6a1.178,1.178,0,0,1,1.093.729Zm-2.279.673-1.4-3.327H903.467l-1.869,3.384a3.151,3.151,0,0,0,6.29-.274,1.185,1.185,0,0,1,2.37,0,3.151,3.151,0,0,0,6.3,0,1.185,1.185,0,0,1,2.37,0,3.148,3.148,0,0,0,6.289.217Zm-2.359,16.783V717.3a5.744,5.744,0,0,1-.786.08,5.446,5.446,0,0,0-8.659,0,5.459,5.459,0,0,0-8.671,0,5.777,5.777,0,0,1-.786-.08v11.565c0,1.128.615,1.9,1.174,1.9h3.554V720.139a1.183,1.183,0,0,1,1.174-1.185h7.1a1.182,1.182,0,0,1,1.174,1.185V730.77h3.555C922.244,730.77,922.859,729.995,922.859,728.867Zm-7.087,1.9v-9.446h-4.728v9.446Z" transform="translate(0 46)" fill="#441e13"/>
    <path id="Trazado_66849" data-name="Trazado 66849" d="M923.816,708.757l1.4,3.327a3.148,3.148,0,0,1-6.289-.217,1.185,1.185,0,0,0-2.37,0,3.151,3.151,0,0,1-6.3,0,1.185,1.185,0,0,0-2.37,0,3.151,3.151,0,0,1-6.29.274l1.869-3.384Z" transform="translate(0 46)" fill="#ec524b"/>
    <path id="Trazado_66850" data-name="Trazado 66850" d="M922.859,717.3v11.565c0,1.128-.615,1.9-1.173,1.9h-3.555V720.139a1.182,1.182,0,0,0-1.174-1.185h-7.1a1.183,1.183,0,0,0-1.174,1.185V730.77h-3.554c-.559,0-1.174-.775-1.174-1.9V717.3a5.777,5.777,0,0,0,.786.08,5.459,5.459,0,0,1,8.671,0,5.446,5.446,0,0,1,8.659,0A5.744,5.744,0,0,0,922.859,717.3Z" transform="translate(0 46)" fill="#f3eac2"/>
  </g>
</svg>