<svg xmlns="http://www.w3.org/2000/svg" width="214.699" height="60.438" viewBox="0 0 214.699 60.438"><defs><style>.a{fill:#3f2016;}</style></defs><g transform="translate(-116.87 -353.216)"><path class="a" d="M257.6,404.748a3.994,3.994,0,1,0-4,3.992,4,4,0,0,0,4-3.992m-.783,0a3.214,3.214,0,1,1-3.216-3.213,3.222,3.222,0,0,1,3.216,3.213m-1.587-.614c.026-.93-.523-1.448-1.591-1.407-1.265.031-1.567.455-1.567.455a.472.472,0,0,0-.12.369l.13,2.924a.214.214,0,0,0,.211.208h.341a.237.237,0,0,0,.23-.208l.058-.854s.3,0,.492.008l.651.846a.428.428,0,0,0,.415.238h.364c.163,0,.27-.1.167-.289l-.657-.872a1.58,1.58,0,0,0,.877-1.417m-.918.065a.724.724,0,0,1-.485.692,3.823,3.823,0,0,1-.94.049l-.023-1.273a2.639,2.639,0,0,1,.85-.13.586.586,0,0,1,.6.662m-7.017,2.693,1.191-16.513c0-7.305-1.938-11.656-9.823-13.031-10.553-1.831-19.63,4.862-19.63,4.862a3.529,3.529,0,0,0-1.5,2.87l.809,21.812a2,2,0,0,0,1.965,1.872h5.48a1.881,1.881,0,0,0,1.875-1.88l-.014-18.416s1.741-1.4,5.551-1.565c5.664-.249,4.727,7.029,4.727,8.056v11.924a1.886,1.886,0,0,0,1.881,1.88h5.474a2.06,2.06,0,0,0,2.016-1.872m-33.072-36.313a6.435,6.435,0,1,0-6.437,6.427,6.458,6.458,0,0,0,6.437-6.427m-19.31,36.3,1.21-37.748a1.815,1.815,0,0,0-1.816-1.88h-6.8a1.812,1.812,0,0,0-1.821,1.88l.449,37.748a1.965,1.965,0,0,0,1.939,1.88h4.9a1.951,1.951,0,0,0,1.935-1.88m-14.911,0V363.831a1.887,1.887,0,0,0-1.881-1.875h-6.8a1.823,1.823,0,0,0-1.827,1.875l1.224,43.052a1.947,1.947,0,0,0,1.93,1.88h5.474a1.889,1.889,0,0,0,1.881-1.88m-15.231-36.3a6.435,6.435,0,1,0-6.437,6.427,6.459,6.459,0,0,0,6.437-6.427M149.475,391.85c1.379-9.662-3.034-17.714-12.974-19.037-9.612-1.277-18.223,4.63-18.223,4.63a4.165,4.165,0,0,0-1.407,3.036l1.178,30.817A1.978,1.978,0,0,0,120,413.161h4.142a2.2,2.2,0,0,0,2.127-1.853l.887-8.343c11.137,3.455,21.1-2.618,22.317-11.115m-9.6-3.031c-.256,3.372-1.927,6.7-6.855,6.624a24.986,24.986,0,0,1-5.939-.935L127.06,384.2a17.327,17.327,0,0,1,7.094-1.562,5.558,5.558,0,0,1,5.722,6.186m13.494-5.484,1.121,23.548a1.991,1.991,0,0,0,1.965,1.88h5.47a1.885,1.885,0,0,0,1.88-1.88l.143-24.1a2.137,2.137,0,0,0-2.334-2.091l-6.469.535a2.068,2.068,0,0,0-1.776,2.11m48.437-1.125v24.673a1.89,1.89,0,0,0,1.889,1.88h5.47a2,2,0,0,0,1.97-1.88l1.143-23.346a2.073,2.073,0,0,0-1.773-2.105l-6.832-.86a1.628,1.628,0,0,0-1.868,1.638" transform="translate(0 -4.125)"/><path class="a" d="M461.189,356.693c-2.979-1.665-9.046-2.46-16.4-3.477-1.529.36-3.63,5.15-3.63,5.15-8.231-1.764-16.678-.024-25.4,4.132-.775-1.182-2.344-3.535-3.42-3.621-6.7.063-14.1,2.983-17.52,9.258-.13,3.8,6.995,18.493,11.375,15.676,0,0,3.441,6.185,4.806,9.41,0,0-3.393,4.633-4.062,8.443-.221,1.254-.373,2.747.871,2.612,1.945-.2,4.071-.573,4.071-.573s-1.344,4.469-.1,5.613c1.51,1.388,4.393.077,4.393.077a5.8,5.8,0,0,0,1.575,3.612,2.694,2.694,0,0,0,3.555-.05c1.834-1.979,3.769-3.99,5.438-3.976,1.02.005,10.66.939,17.727-3.319a12.361,12.361,0,0,1,3.472,1.367c1.831.968,2.465.769,3.27-1.3.661-1.7,1.351-4.436,1.351-4.436s4.088.708,6.917-.773c1.426-.747-1.382-5.43-1.382-5.43l3.029-.238c1.352-.185.9-2.114.678-2.8-1.691-5.149-9.451-8.056-9.451-8.056.85-3.4,1.979-11.744,1.979-11.744s3.639,2.091,6.245.809c2.667-2.942,2.905-13.377.62-16.364m-2.357,12.514c-4.684.836-11.561-8.434-11.561-8.434-.36,3.616,3.531,8.9,3.531,8.9.212.193-3.6,16.9-3.252,16.9,3.278-.1,9.082,3.167,10.382,5.388-1.715.571-4.247,1.216-4.247,1.216a23.262,23.262,0,0,1,2.2,4.651,35.134,35.134,0,0,1-5.866-.792,15.156,15.156,0,0,1-1.335,6.238,18.024,18.024,0,0,0-4.876-1.655c-1.026,1.067-4.625,2.448-6.9,2.878l-.135-2.711c2.96-2.721,7.17-5.11,6.586-8.9-4.7-1.84-17.674.621-20.8,4.044,2.078,2.983,7.484,5.044,11.052,5.574l.733,2.42c-1.989.208-8.322.507-8.322.507a14.52,14.52,0,0,0-6.369,4.514,13.859,13.859,0,0,1-1.161-4.491,23.43,23.43,0,0,0-3.347.162,13.328,13.328,0,0,1,1.156-5.465c-1.575-.571-5.091.154-5.091.154a16.837,16.837,0,0,1,4.6-6.676c.337-.041-6.841-13.621-6.667-13.85a17.161,17.161,0,0,0,.946-13.088c-1.462,5.7-2.982,11.735-5.23,12.212-2.327.494-5.494-7.7-5.538-9.7.891-1.89,5.069-5.043,11-6.325,1.728.6,3.892,5.115,3.892,5.115,13.971-9.977,29.746-5.142,29.746-5.142a15.977,15.977,0,0,1,2.394-5.649c6.063.639,10.862,1.376,12.216,2.537,1.087,1.813,1.134,6.554.257,9.465M440.875,383.4c0-2.483-1.444-4.492-3.229-4.492s-3.23,2.01-3.23,4.492,1.444,4.5,3.23,4.5,3.229-2.016,3.229-4.5m-13.513,1.112c-1.045-2.249-3.206-3.463-4.827-2.712s-2.083,3.188-1.03,5.443,3.208,3.462,4.823,2.713,2.082-3.189,1.034-5.443" transform="translate(-131.179)"/></g></svg>